<?xml version="1.0" encoding="UTF-8" standalone="no"?>
<!-- Created with Inkscape (http://www.inkscape.org/) -->

<svg
   xmlns:dc="http://purl.org/dc/elements/1.1/"
   xmlns:cc="http://creativecommons.org/ns#"
   xmlns:rdf="http://www.w3.org/1999/02/22-rdf-syntax-ns#"
   xmlns:svg="http://www.w3.org/2000/svg"
   xmlns="http://www.w3.org/2000/svg"
   xmlns:sodipodi="http://sodipodi.sourceforge.net/DTD/sodipodi-0.dtd"
   xmlns:inkscape="http://www.inkscape.org/namespaces/inkscape"
   width="300"
   height="300"
   viewBox="0 0 79.374998 79.375"
   version="1.1"
   id="svg8"
   inkscape:version="0.92.3 (2405546, 2018-03-11)"
   sodipodi:docname="investment.svg">
  <defs
     id="defs2" />
  <sodipodi:namedview
     id="base"
     pagecolor="#ffffff"
     bordercolor="#666666"
     borderopacity="1.0"
     inkscape:pageopacity="0.0"
     inkscape:pageshadow="2"
     inkscape:zoom="1.4"
     inkscape:cx="52.034644"
     inkscape:cy="177.03412"
     inkscape:document-units="mm"
     inkscape:current-layer="layer1"
     showgrid="false"
     inkscape:window-width="1366"
     inkscape:window-height="705"
     inkscape:window-x="-8"
     inkscape:window-y="-8"
     inkscape:window-maximized="1" />
  <metadata
     id="metadata5">
    <rdf:RDF>
      <cc:Work
         rdf:about="">
        <dc:format>image/svg+xml</dc:format>
        <dc:type
           rdf:resource="http://purl.org/dc/dcmitype/StillImage" />
        <dc:title></dc:title>
      </cc:Work>
    </rdf:RDF>
  </metadata>
  <g
     inkscape:label="Layer 1"
     inkscape:groupmode="layer"
     id="layer1"
     transform="translate(0,-217.625)">
    <g
       id="g91"
       transform="matrix(0.19376912,0,0,0.19376912,6.5113201,217.54899)">
      <path
         id="path79"
         d="m 187.216,409.916 c -5.773,-2.93 -7.524,-7.623 -7.514,-14.025 0.149,-93.283 0.143,-186.568 0.009,-279.853 -0.009,-6.023 1.93,-10.216 6.591,-14.034 21.645,-17.73 43.064,-35.734 64.565,-53.64 0.921,-0.767 1.831,-1.552 2.783,-2.279 4.965,-3.794 9.725,-3.979 14.537,0.005 23.298,19.288 46.554,38.626 69.67,58.129 2.084,1.759 3.074,4.817 4.572,7.271 0,96.275 0,192.551 0,288.824 -1.02,4.574 -3.956,7.551 -8.001,9.602 -49.07,0 -98.141,0 -147.212,0 z M 261.048,66.895 c -1.139,0.856 -2.009,1.452 -2.816,2.125 -18.329,15.271 -36.62,30.589 -55.017,45.779 -2.174,1.795 -2.984,3.615 -2.981,6.411 0.071,87.849 0.058,175.698 0.058,263.548 0,1.402 0,2.805 0,4.268 40.711,0 80.782,0 121.278,0 0,-1.77 0,-3.336 0,-4.902 0,-67.986 0,-135.973 0,-203.959 0,-19.863 0.035,-39.726 -0.068,-59.588 -0.008,-1.533 -0.518,-3.614 -1.58,-4.509 C 300.46,99.667 280.879,83.41 261.048,66.895 Z"
         inkscape:connector-curvature="0"
         style="clip-rule:evenodd;fill:#d9232e;fill-rule:evenodd" />
      <path
         id="path81"
         d="m 0,229.9 c 2.327,-3.131 4.16,-6.846 7.059,-9.299 21.571,-18.258 43.359,-36.259 65.067,-54.356 7.427,-6.191 11.194,-6.26 18.602,-0.098 22.343,18.584 44.646,37.216 67.02,55.763 3.333,2.762 4.913,6.025 4.909,10.371 -0.052,55.334 -0.078,110.668 0.032,166.002 0.011,5.771 -2.999,9.033 -7.475,11.633 -49.071,0 -98.142,0 -147.213,0 -4.045,-2.051 -6.981,-5.027 -8,-9.602 C 0,343.509 0,286.705 0,229.9 Z m 141.975,159.129 c 0.066,-1.291 0.155,-2.203 0.155,-3.115 0.007,-49.07 0.031,-98.141 -0.098,-147.211 -0.005,-1.666 -1.141,-3.816 -2.445,-4.918 -15.78,-13.342 -31.69,-26.529 -47.568,-39.754 -3.459,-2.881 -6.928,-5.752 -10.475,-8.696 -1.33,1.074 -2.365,1.889 -3.378,2.732 -18.035,15.009 -36.034,30.064 -54.146,44.98 -2.263,1.863 -3.241,3.676 -3.234,6.676 0.104,48.27 0.073,96.541 0.073,144.811 0,1.428 0,2.857 0,4.496 40.515,-10e-4 80.597,-10e-4 121.116,-10e-4 z"
         inkscape:connector-curvature="0"
         style="clip-rule:evenodd;fill:#d9232e;fill-rule:evenodd" />
      <path
         id="path83"
         d="m 0,186.696 c 2.599,-3.226 4.761,-6.968 7.868,-9.593 21.484,-18.155 43.161,-36.083 64.787,-54.071 6.784,-5.643 10.955,-5.626 17.654,-0.045 22.327,18.603 44.646,37.218 67.008,55.779 3.012,2.5 5.211,5.273 5.178,9.406 -0.061,7.723 -7.801,12.507 -14.671,8.959 -1.519,-0.785 -2.909,-1.875 -4.232,-2.975 -19.788,-16.445 -39.554,-32.916 -59.328,-49.378 -0.813,-0.677 -1.649,-1.326 -2.794,-2.244 -7.875,6.542 -15.741,13.068 -23.596,19.605 -12.502,10.403 -24.991,20.822 -37.499,31.218 -9.935,8.258 -16.65,6.317 -20.375,-5.861 0,-0.267 0,-0.533 0,-0.8 z"
         inkscape:connector-curvature="0"
         style="clip-rule:evenodd;fill:#d9232e;fill-rule:evenodd" />
      <path
         id="path85"
         d="m 342.43,69.086 c -0.193,0.493 -0.548,0.983 -0.557,1.479 -0.14,8.556 -11.073,11.929 -17.469,6.384 C 314.536,68.392 304.377,60.171 294.338,51.811 283.286,42.606 272.23,33.407 260.929,24 c -9.936,8.268 -19.752,16.433 -29.565,24.602 -11.064,9.211 -22.1,18.458 -33.217,27.604 -1.61,1.325 -3.486,2.577 -5.449,3.173 -4.647,1.412 -9.37,-0.701 -11.628,-4.772 -2.25,-4.055 -1.446,-9.481 2.333,-12.746 7.464,-6.447 15.094,-12.703 22.673,-19.017 15.159,-12.627 30.31,-25.263 45.517,-37.833 2.127,-1.758 4.546,-3.164 6.83,-4.732 1.6,0 3.2,0 4.8,0 2.726,1.864 5.618,3.526 8.15,5.624 20.936,17.34 41.782,34.79 62.717,52.13 3.493,2.894 6.833,5.795 8.339,10.252 0.001,0.268 0.001,0.534 0.001,0.801 z"
         inkscape:connector-curvature="0"
         style="clip-rule:evenodd;fill:#d9232e;fill-rule:evenodd" />
      <path
         id="path87"
         d="m 250.553,251.324 c -3.592,2.146 -6.522,4.586 -9.892,5.738 -4.236,1.447 -8.435,-0.648 -10.678,-4.211 -2.197,-3.486 -2.145,-8.857 0.807,-11.934 7.189,-7.494 14.461,-14.93 22.078,-21.982 4.651,-4.307 11.763,-4.154 16.458,0.229 7.395,6.902 14.527,14.104 21.51,21.426 3.704,3.883 3.354,10.094 -0.185,13.811 -3.663,3.848 -9.829,4.191 -14.116,0.699 -1.619,-1.32 -3.081,-2.832 -5.312,-4.904 0,2.176 0,3.559 0,4.941 0,23.178 0.121,46.359 -0.146,69.535 -0.035,3.033 -1.297,6.742 -3.307,8.932 -5.239,5.705 -14.643,2.846 -16.673,-4.738 -0.473,-1.766 -0.52,-3.684 -0.522,-5.533 -0.033,-22.646 -0.022,-45.293 -0.022,-67.938 0,-1.411 0,-2.817 0,-4.071 z"
         inkscape:connector-curvature="0"
         style="clip-rule:evenodd;fill:#d9232e;fill-rule:evenodd" />
      <path
         id="path89"
         d="m 91.876,321.294 c 2.182,-2.078 3.541,-3.502 5.033,-4.768 4.222,-3.582 10.414,-3.379 14.163,0.395 3.722,3.748 4.015,10.129 0.183,14.117 -6.923,7.203 -13.955,14.318 -21.23,21.164 -4.934,4.641 -12.099,4.645 -17.066,-0.016 -7.285,-6.834 -14.319,-13.947 -21.231,-21.162 -3.822,-3.986 -3.509,-10.387 0.188,-14.111 3.736,-3.762 9.949,-4.006 14.154,-0.373 1.497,1.293 2.637,2.998 3.94,4.514 0.399,-0.145 0.798,-0.291 1.197,-0.436 0,-1.34 0,-2.68 0,-4.02 0,-23.32 -0.124,-46.645 0.153,-69.965 0.036,-3.014 1.395,-6.717 3.439,-8.869 5.26,-5.543 14.318,-2.809 16.462,4.631 0.541,1.877 0.588,3.943 0.592,5.924 0.039,22.523 0.024,45.045 0.024,67.568 -10e-4,1.458 -10e-4,2.915 -10e-4,5.407 z"
         inkscape:connector-curvature="0"
         style="clip-rule:evenodd;fill:#d9232e;fill-rule:evenodd" />
    </g>
  </g>
</svg>
