<?xml version="1.0" encoding="UTF-8" standalone="no"?>
<!-- Created with Inkscape (http://www.inkscape.org/) -->

<svg
   xmlns:dc="http://purl.org/dc/elements/1.1/"
   xmlns:cc="http://creativecommons.org/ns#"
   xmlns:rdf="http://www.w3.org/1999/02/22-rdf-syntax-ns#"
   xmlns:svg="http://www.w3.org/2000/svg"
   xmlns="http://www.w3.org/2000/svg"
   xmlns:sodipodi="http://sodipodi.sourceforge.net/DTD/sodipodi-0.dtd"
   xmlns:inkscape="http://www.inkscape.org/namespaces/inkscape"
   width="300"
   height="300"
   viewBox="0 0 79.374998 79.375"
   version="1.1"
   id="svg8"
   inkscape:version="0.92.3 (2405546, 2018-03-11)"
   sodipodi:docname="mobile-phone.svg">
  <defs
     id="defs2" />
  <sodipodi:namedview
     id="base"
     pagecolor="#ffffff"
     bordercolor="#666666"
     borderopacity="1.0"
     inkscape:pageopacity="0.0"
     inkscape:pageshadow="2"
     inkscape:zoom="2"
     inkscape:cx="126.23924"
     inkscape:cy="182.25601"
     inkscape:document-units="mm"
     inkscape:current-layer="layer1"
     showgrid="false"
     inkscape:window-width="1366"
     inkscape:window-height="705"
     inkscape:window-x="-8"
     inkscape:window-y="-8"
     inkscape:window-maximized="1" />
  <metadata
     id="metadata5">
    <rdf:RDF>
      <cc:Work
         rdf:about="">
        <dc:format>image/svg+xml</dc:format>
        <dc:type
           rdf:resource="http://purl.org/dc/dcmitype/StillImage" />
        <dc:title></dc:title>
      </cc:Work>
    </rdf:RDF>
  </metadata>
  <g
     inkscape:label="Layer 1"
     inkscape:groupmode="layer"
     id="layer1"
     transform="translate(0,-217.625)">
    <g
       id="use3825"
       transform="matrix(0.19377006,0,0,0.19377006,14.671979,217.625)">
      <path
         id="path3827"
         d="m 198.705,409.635 c -46.404,0 -92.808,0 -139.212,0 -0.851,-0.277 -1.684,-0.65 -2.556,-0.816 C 28.929,403.497 10.528,387.272 2.525,359.921 0.651,353.519 0.126,346.525 0.115,339.804 -0.036,249.814 -0.001,159.825 0.022,69.835 0.028,40.322 13.183,18.777 39.809,5.996 45.921,3.062 52.908,1.95 59.492,0 c 46.404,0 92.808,0 139.212,0 0.851,0.277 1.684,0.651 2.556,0.817 28.008,5.322 46.408,21.546 54.412,48.898 1.874,6.403 2.399,13.396 2.411,20.119 0.151,89.989 0.116,179.979 0.093,269.967 -0.008,29.512 -13.162,51.059 -39.788,63.838 -6.113,2.933 -13.099,4.047 -19.683,5.996 z m 39.357,-204.818 c 0,-44.936 0.01,-89.872 -0.021,-134.808 -0.002,-3.325 0.044,-6.708 -0.514,-9.965 C 233.412,36.059 214.445,20.109 189.902,20.064 149.767,19.989 109.631,20.029 69.495,20.048 40.293,20.062 20.155,40.084 20.146,69.21 c -0.028,90.405 -0.015,180.81 0.01,271.216 0.001,3.059 -0.008,6.168 0.508,9.166 4.129,23.982 23.087,39.934 47.631,39.979 40.536,0.074 81.072,0.055 121.607,-0.033 3.833,-0.008 7.755,-0.379 11.481,-1.242 22.324,-5.178 36.62,-23.518 36.656,-47.07 0.071,-45.47 0.022,-90.939 0.023,-136.409 z"
         inkscape:connector-curvature="0"
         style="clip-rule:evenodd;fill:#d9232e;fill-rule:evenodd" />
      <path
         id="path3829"
         d="m 224.799,190.827 c 0,40.667 0.003,81.335 -0.002,122.003 -0.001,10.152 -3.481,13.598 -13.695,13.598 -54.801,0.002 -109.602,0.002 -164.402,0 -9.654,-0.002 -13.297,-3.598 -13.297,-13.195 -0.006,-81.602 -0.007,-163.203 0,-244.804 0,-9.592 3.66,-13.211 13.293,-13.212 54.935,-0.002 109.868,-0.002 164.803,0 9.637,0 13.295,3.619 13.297,13.208 0.008,40.8 0.003,81.601 0.003,122.402 z M 53.957,75.509 c 0,77.026 0,153.823 0,230.635 50.312,0 100.25,0 150.281,0 0,-77.02 0,-153.817 0,-230.635 -50.311,0 -100.248,0 -150.281,0 z"
         inkscape:connector-curvature="0"
         style="clip-rule:evenodd;fill:#d9232e;fill-rule:evenodd" />
      <path
         id="path3831"
         d="m 128.899,379.379 c -11.76,-0.098 -21.33,-9.697 -21.332,-21.396 -10e-4,-11.846 9.836,-21.541 21.729,-21.41 11.778,0.129 21.332,9.717 21.332,21.41 0,11.857 -9.789,21.496 -21.729,21.396 z"
         inkscape:connector-curvature="0"
         style="clip-rule:evenodd;fill:#d9232e;fill-rule:evenodd" />
      <path
         id="path3833"
         d="m 128.857,243.041 c -13.059,0 -26.117,0.025 -39.175,-0.01 -8.247,-0.021 -12.242,-3.984 -12.266,-12.248 -0.047,-16.123 0.058,-32.247 -0.056,-48.369 -0.035,-5.103 1.844,-8.801 5.993,-11.854 12.657,-9.317 25.13,-18.884 37.689,-28.334 6.201,-4.666 9.931,-4.653 16.178,0.049 12.663,9.534 25.252,19.168 37.997,28.59 3.912,2.893 5.624,6.466 5.603,11.231 -0.07,16.39 0.026,32.78 -0.05,49.169 -0.036,7.717 -4.164,11.732 -11.938,11.762 -13.325,0.049 -26.65,0.014 -39.975,0.014 z M 97.566,222.705 c 7.588,0 14.588,0 21.975,0 0,-5.535 0.031,-10.84 -0.012,-16.143 -0.024,-2.971 1.333,-4.463 4.334,-4.447 3.066,0.017 6.133,-0.034 9.2,-0.001 4.867,0.051 5.564,0.746 5.59,5.58 0.026,4.995 0.006,9.989 0.006,15.25 6.635,0 12.621,-0.108 18.6,0.05 2.623,0.069 3.464,-0.813 3.437,-3.426 -0.116,-10.665 0.021,-21.333 -0.139,-31.998 -0.021,-1.342 -0.915,-3.104 -1.979,-3.928 -9.061,-7.018 -18.216,-13.917 -27.472,-20.675 -0.895,-0.653 -3.077,-0.684 -3.958,-0.041 -9.259,6.754 -18.397,13.675 -27.495,20.647 -0.941,0.721 -1.984,2.063 -1.997,3.128 -0.142,11.844 -0.09,23.692 -0.09,36.004 z"
         inkscape:connector-curvature="0"
         style="clip-rule:evenodd;fill:#d9232e;fill-rule:evenodd" />
    </g>
  </g>
</svg>
